<?xml version="1.0" encoding="utf-8"?>
<svg viewBox="0 0 500 500" xmlns="http://www.w3.org/2000/svg" xmlns:bx="https://boxy-svg.com">
  <defs>
    <filter id="drop-shadow-filter-1" color-interpolation-filters="sRGB" x="-50%" y="-50%" width="200%" height="200%" bx:preset="drop-shadow 1 -3 3 4 0.5 rgba(0,0,0,0.3)">
      <feGaussianBlur in="SourceAlpha" stdDeviation="4"/>
      <feOffset dx="-3" dy="3"/>
      <feComponentTransfer result="offsetblur">
        <feFuncA id="spread-ctrl" type="linear" slope="1"/>
      </feComponentTransfer>
      <feFlood flood-color="rgba(0,0,0,0.3)"/>
      <feComposite in2="offsetblur" operator="in"/>
      <feMerge>
        <feMergeNode/>
        <feMergeNode in="SourceGraphic"/>
      </feMerge>
    </filter>
    <filter id="drop-shadow-filter-2" color-interpolation-filters="sRGB" x="-50%" y="-50%" width="200%" height="200%" bx:preset="drop-shadow 1 -3 3 4 0.5 rgba(0,0,0,0.3)">
      <feGaussianBlur in="SourceAlpha" stdDeviation="4"/>
      <feOffset dx="-3" dy="3"/>
      <feComponentTransfer result="offsetblur">
        <feFuncA id="spread-ctrl" type="linear" slope="1"/>
      </feComponentTransfer>
      <feFlood flood-color="rgba(0,0,0,0.3)"/>
      <feComposite in2="offsetblur" operator="in"/>
      <feMerge>
        <feMergeNode/>
        <feMergeNode in="SourceGraphic"/>
      </feMerge>
    </filter>
    <filter id="drop-shadow-filter-0" color-interpolation-filters="sRGB" x="-50%" y="-50%" width="200%" height="200%" bx:preset="drop-shadow 1 -7 3 4 0.5 rgba(0,0,0,0.3)">
      <feGaussianBlur in="SourceAlpha" stdDeviation="4"/>
      <feOffset dx="-7" dy="3"/>
      <feComponentTransfer result="offsetblur">
        <feFuncA id="spread-ctrl" type="linear" slope="1"/>
      </feComponentTransfer>
      <feFlood flood-color="rgba(0,0,0,0.3)"/>
      <feComposite in2="offsetblur" operator="in"/>
      <feMerge>
        <feMergeNode/>
        <feMergeNode in="SourceGraphic"/>
      </feMerge>
    </filter>
  </defs>
  <g style="filter: url('#drop-shadow-filter-1');" transform="matrix(2.0424749851226807, 0, 0, 2.0424749851226807, -289.15252685546875, -209.8461456298828)">
    <title>Mug</title>
    <path style="fill: rgb(255, 206, 42); transform-origin: 235.442px 141.367px;" d="M 237.468 156.032 L 228.35 156.032 L 225.233 153.12 L 228.35 150.148 L 237.468 150.148 C 237.99 150.148 238.414 149.802 238.414 149.378 L 238.414 133.357 C 238.414 132.932 237.99 132.587 237.468 132.587 L 228.35 132.587 L 225.233 129.88 L 228.35 126.702 L 237.468 126.702 C 241.987 126.702 245.651 129.682 245.651 133.357 L 245.651 149.378 C 245.651 153.053 241.987 156.032 237.468 156.032 Z" transform="matrix(-1, 0, 0, -1, -0.000007, 0.000006)"/>
    <polygon style="fill: rgb(255, 173, 0); transform-origin: 255.751px 141.265px;" points="268.968 164.178 268.968 164.178 242.533 166.713 245.651 115.814 268.968 115.814" transform="matrix(-1, 0, 0, -1, -0.000034, -0.000009)"/>
    <polygon style="fill: rgb(255, 206, 42); transform-origin: 277.51px 141.265px;" points="265.852 164.178 265.851 164.178 265.851 115.814 289.169 115.814 289.169 166.713" transform="matrix(-1, 0, 0, -1, -0.000042, -0.000009)"/>
    <rect x="0.298" y="-44.309" transform="matrix(0.001599, -0.999999, -1, -0.001057, 262.413821, 184.503617)" style="fill: rgb(253, 235, 149); transform-origin: 15.12px -41.97px;" width="29.643" height="4.677"/>
    <rect x="-256.531" y="127.711" style="fill: rgb(255, 206, 42); transform-origin: -254.194px 142.533px;" width="4.677" height="29.643" transform="matrix(-1, 0, 0, 1, 508.387573, 0)"/>
    <path style="fill: rgb(251, 214, 152); transform-origin: 255.751px 111.474px;" d="M 268.968 108 C 268.952 111.97 264.99 115.185 260.104 115.185 C 258.279 115.185 256.583 114.736 255.173 113.967 C 253.231 116.594 249.694 118.351 245.651 118.351 L 242.533 110.999 L 245.651 104.6 L 268.968 104.6 L 268.968 108 Z" transform="matrix(-1, 0, 0, -1, -0.000034, 0.000005)"/>
    <path style="fill: rgb(255, 241, 216); transform-origin: 277.509px 119.273px;" d="M 279.644 129.563 C 278.235 130.332 276.539 130.781 274.713 130.781 C 269.827 130.781 265.865 127.566 265.85 123.596 L 265.85 120.196 L 273.454 120.196 L 273.454 107.857 C 273.454 106.058 275.248 104.599 277.461 104.599 C 279.674 104.599 281.467 106.058 281.467 107.857 L 281.467 120.196 L 289.167 120.196 L 289.167 133.947 C 285.123 133.947 281.586 132.19 279.644 129.563 Z" transform="matrix(-1, 0, 0, -1, 0.000003, -0.000004)"/>
    <polygon style="fill: rgb(255, 206, 42); transform-origin: 265.462px 142.532px;" points="267.411 157.353 265.073 157.353 263.514 143.133 265.073 127.711 267.411 127.711" transform="matrix(-1, 0, 0, -1, 0.000017, 0.000008)"/>
    <rect x="-268.19" y="127.711" style="fill: rgb(253, 235, 149); transform-origin: -267.021px 142.533px;" width="2.338" height="29.643" transform="matrix(-1, 0, 0, 1, 534.041748, 0)"/>
  </g>
  <g style="filter: url('#drop-shadow-filter-2');" transform="matrix(2.0424749851226807, 0, 0, 2.0424749851226807, -306.8006591796875, -209.8461456298828)">
    <title>Keg Vert</title>
    <path style="fill: rgb(112, 38, 0); transform-box: fill-box; transform-origin: 50% 50%;" d="M 212.246 164.652 L 190.032 164.652 C 190.032 164.652 187.605 192.154 187.605 245.8 C 187.605 299.447 190.032 326.949 190.032 326.949 L 212.246 326.949 C 212.246 326.949 214.168 318.905 215.934 303.031 L 210.51 293.463 L 217.614 283.896 C 218.328 273.169 218.819 260.461 218.819 245.8 C 218.819 231.141 218.328 218.433 217.614 207.705 L 210.51 198.137 L 215.934 188.571 C 214.168 172.696 212.246 164.652 212.246 164.652 Z" transform="matrix(-1, 0, 0, -1, -0.000033, -0.000011)"/>
    <path style="fill: rgb(152, 51, 0); transform-box: fill-box; transform-origin: 50% 50%;" d="M 239.72 164.652 L 217.505 164.652 C 217.505 164.652 212.449 192.154 212.449 245.8 C 212.449 299.447 217.505 326.949 217.505 326.949 L 239.72 326.949 C 239.72 326.949 243.663 299.447 243.663 245.8 C 243.663 192.154 239.72 164.652 239.72 164.652 Z" transform="matrix(-1, 0, 0, -1, 0.000012, -0.000011)"/>
    <path style="fill: rgb(213, 104, 30); transform-box: fill-box; transform-origin: 50% 50%;" d="M 267.191 164.652 L 244.977 164.652 C 244.977 164.652 237.291 192.154 237.291 245.8 C 237.291 299.447 244.977 326.949 244.977 326.949 L 267.191 326.949 C 267.191 326.949 268.506 299.447 268.506 245.8 C 268.506 192.154 267.191 164.652 267.191 164.652 Z" transform="matrix(-1, 0, 0, -1, 0.000024, -0.000011)"/>
    <path style="fill: rgb(255, 153, 51); transform-box: fill-box; transform-origin: 50% 50%;" d="M 293.35 164.652 L 271.135 164.652 C 271.135 164.652 260.82 192.154 260.82 245.8 C 260.82 299.447 271.135 326.949 271.135 326.949 L 293.35 326.949 C 293.35 326.949 292.034 299.447 292.034 245.8 C 292.034 192.154 293.35 164.652 293.35 164.652 Z" transform="matrix(-1, 0, 0, -1, -0.000058, -0.000011)"/>
    <path style="fill: rgb(255, 188, 122); transform-box: fill-box; transform-origin: 50% 50%;" d="M 311.822 164.652 L 289.608 164.652 C 289.608 164.652 287.685 172.696 285.919 188.571 L 291.344 198.137 L 284.24 207.705 C 283.526 218.433 283.035 231.14 283.035 245.8 C 283.035 260.461 283.526 273.169 284.24 283.896 L 291.344 293.463 L 285.919 303.03 C 287.685 318.904 289.608 326.949 289.608 326.949 L 311.822 326.949 C 311.822 326.949 307.878 299.447 307.878 245.8 C 307.878 192.154 311.822 164.652 311.822 164.652 Z" transform="matrix(-1, 0, 0, -1, -0.000044, -0.000011)"/>
    <g transform="matrix(-0.304853, 0, 0, -0.316987, 327.756104, 326.949219)" style="">
      <path style="fill:#303030;" d="M450.267,75.456H256l-20.898,30.183L256,135.822h199.779&#10;&#9;&#9;C454.187,112.8,452.259,92.669,450.267,75.456z"/>
      <path style="fill:#303030;" d="M256,436.544h194.267c1.991-17.213,3.919-37.344,5.511-60.365H256l-20.898,30.183L256,436.544z"/>
    </g>
    <g transform="matrix(-0.304853, 0, 0, -0.316987, 327.756104, 326.949219)" style="">
      <path style="fill:#4A4A4A;" d="M61.733,75.456c-2.505,24.197-6.265,69.247-5.511,60.365H256V75.456H61.733z"/>
      <path style="fill:#4A4A4A;" d="M56.221,376.179c1.592,23.021,3.52,43.153,5.511,60.365H256v-60.365H56.221z"/>
    </g>
  </g>
  <g style="filter: url('#drop-shadow-filter-0');" transform="matrix(2.0424749851226807, 0, 0, 2.0424749851226807, -351.5091857910156, -209.8461456298828)">
    <title>Keg Hoz</title>
    <polygon style="fill: rgb(152, 51, 0);" points="313.871 211.391 309.923 221.95 313.871 234.183 321.329 227.647 324.007 211.391"/>
    <polygon style="fill: rgb(213, 104, 30);" points="303.735 211.391 306.414 227.647 313.871 234.183 313.871 211.391"/>
    <rect x="-135.582" y="-156.601" transform="matrix(0.283409, -0.958999, -0.983891, -0.19918, 142.674335, 183.126573)" style="fill: rgb(152, 51, 0);" width="19.162" height="11.694"/>
    <rect x="-51.938" y="-127.869" transform="matrix(0.980118, -0.198417, -0.284499, -0.962691, 387.399952, 212.665059)" style="fill: rgb(213, 104, 30);" width="11.904" height="19.089"/>
    <path style="fill: rgb(112, 112, 112);" d="M 225.472 274.131 L 225.472 264.001 L 213.627 264.001 L 213.627 274.838 C 204.891 276.962 198.493 283.652 198.493 291.559 L 198.493 301.472 L 210.338 301.472 L 210.338 291.559 C 210.338 287.356 214.47 283.935 219.55 283.935 L 243.695 283.935 L 243.695 274.132 L 225.472 274.132 L 225.472 274.131 Z"/>
    <path style="fill: rgb(112, 38, 0);" d="M 391.945 325.017 L 391.945 306.623 C 391.945 306.623 365.485 304.614 313.872 304.614 C 262.26 304.614 235.799 306.623 235.799 306.623 L 235.799 325.017 C 235.799 325.017 243.538 326.608 258.812 328.07 L 268.016 323.579 L 277.221 329.461 C 287.542 330.052 299.768 330.458 313.872 330.458 C 327.976 330.458 340.202 330.052 350.524 329.461 L 359.729 323.579 L 368.934 328.07 C 384.205 326.608 391.945 325.017 391.945 325.017 Z"/>
    <path style="fill: rgb(152, 51, 0);" d="M 391.945 306.623 L 391.945 288.229 C 391.945 288.229 365.485 284.043 313.872 284.043 C 262.26 284.043 235.799 288.229 235.799 288.229 L 235.799 306.623 C 235.799 306.623 262.26 309.888 313.872 309.888 C 365.485 309.888 391.945 306.623 391.945 306.623 Z"/>
    <path style="fill: rgb(213, 104, 30);" d="M 391.945 288.229 L 391.945 269.837 C 391.945 269.837 365.485 263.474 313.872 263.474 C 262.26 263.474 235.799 269.837 235.799 269.837 L 235.799 288.23 C 235.799 288.23 262.26 289.319 313.872 289.319 C 365.485 289.319 391.945 288.229 391.945 288.229 Z"/>
    <path style="fill: rgb(255, 153, 51);" d="M 391.945 269.837 L 391.945 251.444 C 391.945 251.444 365.485 242.904 313.872 242.904 C 262.26 242.904 235.799 251.444 235.799 251.444 L 235.799 269.837 C 235.799 269.837 262.26 268.749 313.872 268.749 C 365.485 268.749 391.945 269.837 391.945 269.837 Z"/>
    <path style="fill: rgb(255, 188, 122);" d="M 391.945 251.444 L 391.945 233.051 C 391.945 233.051 384.205 231.459 368.933 229.997 L 359.728 234.489 L 350.523 228.606 C 340.201 228.015 327.975 227.609 313.871 227.609 C 299.767 227.609 287.541 228.016 277.22 228.606 L 268.016 234.489 L 258.811 229.997 C 243.537 231.459 235.798 233.051 235.798 233.051 L 235.798 251.444 C 235.798 251.444 262.259 248.179 313.871 248.179 C 365.484 248.179 391.945 251.444 391.945 251.444 Z"/>
    <g transform="matrix(0.377835, 0, 0, 0.31272, 198.493271, 197.812897)" style="">
      <path style="fill:#303030;" d="M451.094,416.528V259.723l-24.362-16.867l-24.362,16.867v161.253&#10;&#9;&#9;C420.953,419.692,437.202,418.135,451.094,416.528z"/>
      <path style="fill:#303030;" d="M159.64,259.723v156.804c13.893,1.607,30.141,3.163,48.724,4.448V259.723l-24.362-16.867&#10;&#9;&#9;L159.64,259.723z"/>
    </g>
    <g transform="matrix(0.377835, 0, 0, 0.31272, 198.493271, 197.812897)" style="">
      <path style="fill:#4A4A4A;" d="M451.094,102.919c-19.53-2.021-55.894-5.058-48.724-4.448v161.253h48.724V102.919z"/>
      <path style="fill:#4A4A4A;" d="M208.364,98.471c-18.582,1.285-34.831,2.841-48.724,4.448v156.804h48.724L208.364,98.471&#10;&#9;&#9;L208.364,98.471z"/>
    </g>
  </g>
</svg>