<?xml version="1.0" encoding="utf-8"?>
<svg viewBox="0 0 500 500" xmlns="http://www.w3.org/2000/svg">
  <path d="M 254.005 26.656 C 138.549 26.656 45.005 120.2 45.005 235.656 C 45.005 351.112 138.549 444.656 254.005 444.656 C 369.461 444.656 463.005 351.112 463.005 235.656 C 463.005 120.2 369.461 26.656 254.005 26.656 Z M 373.169 354.82 C 341.313 386.676 299.007 404.205 254.005 404.205 C 209.003 404.205 166.697 386.676 134.841 354.82 C 102.985 322.964 85.456 280.658 85.456 235.656 C 85.456 190.654 102.985 148.348 134.841 116.492 C 166.697 84.636 209.003 67.107 254.005 67.107 C 299.007 67.107 341.313 84.636 373.169 116.492 C 405.025 148.348 422.554 190.654 422.554 235.656 C 422.554 280.658 405.025 322.964 373.169 354.82 Z M 334.571 185.092 L 362.887 151.128 C 370.134 142.449 359.684 130.228 349.91 135.961 L 282.49 176.412 C 275.917 180.371 275.917 189.812 282.49 193.771 L 349.91 234.222 C 359.6 239.955 370.134 227.819 362.887 219.055 L 334.571 185.092 Z M 158.1 234.222 L 225.52 193.771 C 232.093 189.812 232.093 180.371 225.52 176.412 L 158.1 135.961 C 148.326 130.144 137.876 142.449 145.122 151.128 L 173.44 185.092 L 145.122 219.055 C 137.791 227.819 148.326 239.955 158.1 234.222 Z M 350.414 262.623 L 157.596 262.623 C 150.684 262.623 145.376 268.522 146.219 275.264 C 152.54 325.155 195.856 363.754 248.275 363.754 L 259.735 363.754 C 312.155 363.754 355.471 325.155 361.791 275.264 C 362.634 268.522 357.326 262.623 350.414 262.623 Z" style="fill: rgb(255, 255, 255);"/>
</svg>